<?xml version="1.0" encoding="utf-8"?>
<!-- Generator: Adobe Illustrator 19.2.1, SVG Export Plug-In . SVG Version: 6.00 Build 0)  -->
<svg version="1.1" id="Layer_1" xmlns="http://www.w3.org/2000/svg" xmlns:xlink="http://www.w3.org/1999/xlink" x="0px" y="0px"
	 viewBox="0 0 360 20" style="enable-background:new 0 0 360 20;" xml:space="preserve">
<style type="text/css">
	.st0{fill:#ff6f2b;}
</style>
<rect class="st0" width="1" height="20"/>
<rect x="31" class="st0" width="1" height="20"/>
<rect x="6" class="st0" width="1" height="6"/>
<rect x="13" class="st0" width="1" height="6"/>
<rect x="19" class="st0" width="1" height="6"/>
<rect x="25" class="st0" width="1" height="6"/>
<rect x="37" class="st0" width="1" height="6"/>
<rect x="44" class="st0" width="1" height="6"/>
<rect x="50" class="st0" width="1" height="6"/>
<rect x="56" class="st0" width="1" height="6"/>
<rect x="62" class="st0" width="1" height="20"/>
<rect x="93" class="st0" width="1" height="20"/>
<rect x="68" class="st0" width="1" height="6"/>
<rect x="75" class="st0" width="1" height="6"/>
<rect x="81" class="st0" width="1" height="6"/>
<rect x="87" class="st0" width="1" height="6"/>
<rect x="99" class="st0" width="1" height="6"/>
<rect x="106" class="st0" width="1" height="6"/>
<rect x="112" class="st0" width="1" height="6"/>
<rect x="118" class="st0" width="1" height="6"/>
<rect x="124" class="st0" width="1" height="20"/>
<rect x="155" class="st0" width="1" height="20"/>
<rect x="130" class="st0" width="1" height="6"/>
<rect x="137" class="st0" width="1" height="6"/>
<rect x="143" class="st0" width="1" height="6"/>
<rect x="149" class="st0" width="1" height="6"/>
<rect x="161" class="st0" width="1" height="6"/>
<rect x="168" class="st0" width="1" height="6"/>
<rect x="174" class="st0" width="1" height="6"/>
<rect x="180" class="st0" width="1" height="6"/>
<rect x="186" class="st0" width="1" height="20"/>
<rect x="217" class="st0" width="1" height="20"/>
<rect x="192" class="st0" width="1" height="6"/>
<rect x="199" class="st0" width="1" height="6"/>
<rect x="205" class="st0" width="1" height="6"/>
<rect x="211" class="st0" width="1" height="6"/>
<rect x="223" class="st0" width="1" height="6"/>
<rect x="230" class="st0" width="1" height="6"/>
<rect x="236" class="st0" width="1" height="6"/>
<rect x="242" class="st0" width="1" height="6"/>
<rect x="248" class="st0" width="1" height="20"/>
<rect x="279" class="st0" width="1" height="20"/>
<rect x="254" class="st0" width="1" height="6"/>
<rect x="261" class="st0" width="1" height="6"/>
<rect x="267" class="st0" width="1" height="6"/>
<rect x="273" class="st0" width="1" height="6"/>
<rect x="285" class="st0" width="1" height="6"/>
<rect x="292" class="st0" width="1" height="6"/>
<rect x="298" class="st0" width="1" height="6"/>
<rect x="304" class="st0" width="1" height="6"/>
<rect x="310" class="st0" width="1" height="20"/>
<rect x="340" class="st0" width="1" height="20"/>
<rect x="316" class="st0" width="1" height="6"/>
<rect x="323" class="st0" width="1" height="6"/>
<rect x="329" class="st0" width="1" height="6"/>
<rect x="334" class="st0" width="1" height="6"/>
<rect x="346" class="st0" width="1" height="6"/>
<rect x="353" class="st0" width="1" height="6"/>
<rect x="359" class="st0" width="1" height="6"/>
</svg>
